<svg xmlns="http://www.w3.org/2000/svg" xmlns:xlink="http://www.w3.org/1999/xlink" width="1080" zoomAndPan="magnify" viewBox="0 0 810 809.999993" height="1080" preserveAspectRatio="xMidYMid meet" version="1.0"><defs><clipPath id="fe051e7c89"><path d="M 542 192 L 745 192 L 745 253 L 542 253 Z M 542 192 " clip-rule="nonzero"/></clipPath><clipPath id="09c0fe5953"><path d="M 19.277344 212.96875 L 756.398438 0.0742188 L 857.332031 349.542969 L 120.207031 562.433594 Z M 19.277344 212.96875 " clip-rule="nonzero"/></clipPath><clipPath id="e78fb450ef"><path d="M 756.65625 0 L 19.535156 212.894531 L 120.46875 562.359375 L 857.589844 349.46875 Z M 756.65625 0 " clip-rule="nonzero"/></clipPath><clipPath id="cf4e187b51"><path d="M 756.65625 0 L 19.535156 212.894531 L 120.46875 562.359375 L 857.589844 349.46875 Z M 756.65625 0 " clip-rule="nonzero"/></clipPath><clipPath id="352c3ba9b1"><path d="M 537 234 L 724 234 L 724 284 L 537 284 Z M 537 234 " clip-rule="nonzero"/></clipPath><clipPath id="51c9a2c639"><path d="M 19.277344 212.96875 L 756.398438 0.0742188 L 857.332031 349.542969 L 120.207031 562.433594 Z M 19.277344 212.96875 " clip-rule="nonzero"/></clipPath><clipPath id="86ca23ec75"><path d="M 756.65625 0 L 19.535156 212.894531 L 120.46875 562.359375 L 857.589844 349.46875 Z M 756.65625 0 " clip-rule="nonzero"/></clipPath><clipPath id="3b3c2d2754"><path d="M 756.65625 0 L 19.535156 212.894531 L 120.46875 562.359375 L 857.589844 349.46875 Z M 756.65625 0 " clip-rule="nonzero"/></clipPath><clipPath id="c08ee9a9ed"><path d="M 405 231 L 614 231 L 614 382 L 405 382 Z M 405 231 " clip-rule="nonzero"/></clipPath><clipPath id="975e308605"><path d="M 19.277344 212.96875 L 756.398438 0.0742188 L 857.332031 349.542969 L 120.207031 562.433594 Z M 19.277344 212.96875 " clip-rule="nonzero"/></clipPath><clipPath id="14e2953c48"><path d="M 756.65625 0 L 19.535156 212.894531 L 120.46875 562.359375 L 857.589844 349.46875 Z M 756.65625 0 " clip-rule="nonzero"/></clipPath><clipPath id="98be95b56a"><path d="M 756.65625 0 L 19.535156 212.894531 L 120.46875 562.359375 L 857.589844 349.46875 Z M 756.65625 0 " clip-rule="nonzero"/></clipPath><clipPath id="979afddb80"><path d="M 475 45 L 770 45 L 770 291 L 475 291 Z M 475 45 " clip-rule="nonzero"/></clipPath><clipPath id="2759297e78"><path d="M 19.277344 212.96875 L 756.398438 0.0742188 L 857.332031 349.542969 L 120.207031 562.433594 Z M 19.277344 212.96875 " clip-rule="nonzero"/></clipPath><clipPath id="77c20ce346"><path d="M 756.65625 0 L 19.535156 212.894531 L 120.46875 562.359375 L 857.589844 349.46875 Z M 756.65625 0 " clip-rule="nonzero"/></clipPath><clipPath id="1d1abbe2c8"><path d="M 756.65625 0 L 19.535156 212.894531 L 120.46875 562.359375 L 857.589844 349.46875 Z M 756.65625 0 " clip-rule="nonzero"/></clipPath><clipPath id="ae90323aba"><path d="M 410 237 L 502 237 L 502 349 L 410 349 Z M 410 237 " clip-rule="nonzero"/></clipPath><clipPath id="728a5d7720"><path d="M 19.277344 212.96875 L 756.398438 0.0742188 L 857.332031 349.542969 L 120.207031 562.433594 Z M 19.277344 212.96875 " clip-rule="nonzero"/></clipPath><clipPath id="f61350343c"><path d="M 756.65625 0 L 19.535156 212.894531 L 120.46875 562.359375 L 857.589844 349.46875 Z M 756.65625 0 " clip-rule="nonzero"/></clipPath><clipPath id="0f5d5bd8f7"><path d="M 756.65625 0 L 19.535156 212.894531 L 120.46875 562.359375 L 857.589844 349.46875 Z M 756.65625 0 " clip-rule="nonzero"/></clipPath><clipPath id="04e8cc3ba3"><path d="M 22 169 L 472 169 L 472 398 L 22 398 Z M 22 169 " clip-rule="nonzero"/></clipPath><clipPath id="7c77a17f1d"><path d="M 19.277344 212.96875 L 756.398438 0.0742188 L 857.332031 349.542969 L 120.207031 562.433594 Z M 19.277344 212.96875 " clip-rule="nonzero"/></clipPath><clipPath id="fcf0c9d39c"><path d="M 756.65625 0 L 19.535156 212.894531 L 120.46875 562.359375 L 857.589844 349.46875 Z M 756.65625 0 " clip-rule="nonzero"/></clipPath><clipPath id="6a02549d3f"><path d="M 756.65625 0 L 19.535156 212.894531 L 120.46875 562.359375 L 857.589844 349.46875 Z M 756.65625 0 " clip-rule="nonzero"/></clipPath><clipPath id="e361445ed6"><path d="M 52 208 L 363 208 L 363 307 L 52 307 Z M 52 208 " clip-rule="nonzero"/></clipPath><clipPath id="acf35e3ae2"><path d="M 19.277344 212.96875 L 756.398438 0.0742188 L 857.332031 349.542969 L 120.207031 562.433594 Z M 19.277344 212.96875 " clip-rule="nonzero"/></clipPath><clipPath id="d75d5386e4"><path d="M 756.65625 0 L 19.535156 212.894531 L 120.46875 562.359375 L 857.589844 349.46875 Z M 756.65625 0 " clip-rule="nonzero"/></clipPath><clipPath id="ffba31994f"><path d="M 756.65625 0 L 19.535156 212.894531 L 120.46875 562.359375 L 857.589844 349.46875 Z M 756.65625 0 " clip-rule="nonzero"/></clipPath><clipPath id="5d62a0e925"><path d="M 307 336 L 479 336 L 479 506 L 307 506 Z M 307 336 " clip-rule="nonzero"/></clipPath><clipPath id="e4ad746141"><path d="M 19.277344 212.96875 L 756.398438 0.0742188 L 857.332031 349.542969 L 120.207031 562.433594 Z M 19.277344 212.96875 " clip-rule="nonzero"/></clipPath><clipPath id="e59914d78a"><path d="M 756.65625 0 L 19.535156 212.894531 L 120.46875 562.359375 L 857.589844 349.46875 Z M 756.65625 0 " clip-rule="nonzero"/></clipPath><clipPath id="2d9bff2427"><path d="M 756.65625 0 L 19.535156 212.894531 L 120.46875 562.359375 L 857.589844 349.46875 Z M 756.65625 0 " clip-rule="nonzero"/></clipPath><clipPath id="c21ad643ec"><path d="M 544 211 L 610 211 L 610 257 L 544 257 Z M 544 211 " clip-rule="nonzero"/></clipPath><clipPath id="f3101cd4dd"><path d="M 19.277344 212.96875 L 756.398438 0.0742188 L 857.332031 349.542969 L 120.207031 562.433594 Z M 19.277344 212.96875 " clip-rule="nonzero"/></clipPath><clipPath id="b3656941fa"><path d="M 756.65625 0 L 19.535156 212.894531 L 120.46875 562.359375 L 857.589844 349.46875 Z M 756.65625 0 " clip-rule="nonzero"/></clipPath><clipPath id="dcbe226ebd"><path d="M 756.65625 0 L 19.535156 212.894531 L 120.46875 562.359375 L 857.589844 349.46875 Z M 756.65625 0 " clip-rule="nonzero"/></clipPath><clipPath id="b154e5df8b"><path d="M 599 53 L 729 53 L 729 125 L 599 125 Z M 599 53 " clip-rule="nonzero"/></clipPath><clipPath id="7a84e352cf"><path d="M 19.277344 212.96875 L 756.398438 0.0742188 L 857.332031 349.542969 L 120.207031 562.433594 Z M 19.277344 212.96875 " clip-rule="nonzero"/></clipPath><clipPath id="e428879571"><path d="M 756.65625 0 L 19.535156 212.894531 L 120.46875 562.359375 L 857.589844 349.46875 Z M 756.65625 0 " clip-rule="nonzero"/></clipPath><clipPath id="f0581be75b"><path d="M 756.65625 0 L 19.535156 212.894531 L 120.46875 562.359375 L 857.589844 349.46875 Z M 756.65625 0 " clip-rule="nonzero"/></clipPath><clipPath id="27bca08355"><path d="M 109 565 L 227 565 L 227 601 L 109 601 Z M 109 565 " clip-rule="nonzero"/></clipPath><clipPath id="505f224547"><path d="M 102.03125 453.914062 L 531.335938 578.445312 L 472.414062 781.570312 L 43.109375 657.039062 Z M 102.03125 453.914062 " clip-rule="nonzero"/></clipPath><clipPath id="7913579f44"><path d="M 102.03125 453.914062 L 531.335938 578.445312 L 472.414062 781.570312 L 43.109375 657.039062 Z M 102.03125 453.914062 " clip-rule="nonzero"/></clipPath><clipPath id="727f6e5033"><path d="M 102.03125 453.914062 L 531.335938 578.445312 L 472.414062 781.570312 L 43.109375 657.039062 Z M 102.03125 453.914062 " clip-rule="nonzero"/></clipPath><clipPath id="23707e7379"><path d="M 121 590 L 230 590 L 230 619 L 121 619 Z M 121 590 " clip-rule="nonzero"/></clipPath><clipPath id="9e0a81a200"><path d="M 102.03125 453.914062 L 531.335938 578.445312 L 472.414062 781.570312 L 43.109375 657.039062 Z M 102.03125 453.914062 " clip-rule="nonzero"/></clipPath><clipPath id="9a9eb70732"><path d="M 102.03125 453.914062 L 531.335938 578.445312 L 472.414062 781.570312 L 43.109375 657.039062 Z M 102.03125 453.914062 " clip-rule="nonzero"/></clipPath><clipPath id="e888c35322"><path d="M 102.03125 453.914062 L 531.335938 578.445312 L 472.414062 781.570312 L 43.109375 657.039062 Z M 102.03125 453.914062 " clip-rule="nonzero"/></clipPath><clipPath id="50330b4866"><path d="M 185 588 L 307 588 L 307 677 L 185 677 Z M 185 588 " clip-rule="nonzero"/></clipPath><clipPath id="8da79f5f5b"><path d="M 102.03125 453.914062 L 531.335938 578.445312 L 472.414062 781.570312 L 43.109375 657.039062 Z M 102.03125 453.914062 " clip-rule="nonzero"/></clipPath><clipPath id="af73d54847"><path d="M 102.03125 453.914062 L 531.335938 578.445312 L 472.414062 781.570312 L 43.109375 657.039062 Z M 102.03125 453.914062 " clip-rule="nonzero"/></clipPath><clipPath id="9db419f92b"><path d="M 102.03125 453.914062 L 531.335938 578.445312 L 472.414062 781.570312 L 43.109375 657.039062 Z M 102.03125 453.914062 " clip-rule="nonzero"/></clipPath><clipPath id="8944047305"><path d="M 94 480 L 266 480 L 266 623 L 94 623 Z M 94 480 " clip-rule="nonzero"/></clipPath><clipPath id="06ec3a2289"><path d="M 102.03125 453.914062 L 531.335938 578.445312 L 472.414062 781.570312 L 43.109375 657.039062 Z M 102.03125 453.914062 " clip-rule="nonzero"/></clipPath><clipPath id="ee9ab69ce4"><path d="M 102.03125 453.914062 L 531.335938 578.445312 L 472.414062 781.570312 L 43.109375 657.039062 Z M 102.03125 453.914062 " clip-rule="nonzero"/></clipPath><clipPath id="4cb2cb8fec"><path d="M 102.03125 453.914062 L 531.335938 578.445312 L 472.414062 781.570312 L 43.109375 657.039062 Z M 102.03125 453.914062 " clip-rule="nonzero"/></clipPath><clipPath id="00797a376a"><path d="M 250 592 L 304 592 L 304 658 L 250 658 Z M 250 592 " clip-rule="nonzero"/></clipPath><clipPath id="a2caf294c7"><path d="M 102.03125 453.914062 L 531.335938 578.445312 L 472.414062 781.570312 L 43.109375 657.039062 Z M 102.03125 453.914062 " clip-rule="nonzero"/></clipPath><clipPath id="7b5786aa4b"><path d="M 102.03125 453.914062 L 531.335938 578.445312 L 472.414062 781.570312 L 43.109375 657.039062 Z M 102.03125 453.914062 " clip-rule="nonzero"/></clipPath><clipPath id="6f7b86b8df"><path d="M 102.03125 453.914062 L 531.335938 578.445312 L 472.414062 781.570312 L 43.109375 657.039062 Z M 102.03125 453.914062 " clip-rule="nonzero"/></clipPath><clipPath id="cf1198eaf7"><path d="M 267 552 L 530 552 L 530 686 L 267 686 Z M 267 552 " clip-rule="nonzero"/></clipPath><clipPath id="2b3253e362"><path d="M 102.03125 453.914062 L 531.335938 578.445312 L 472.414062 781.570312 L 43.109375 657.039062 Z M 102.03125 453.914062 " clip-rule="nonzero"/></clipPath><clipPath id="b0adf2b99f"><path d="M 102.03125 453.914062 L 531.335938 578.445312 L 472.414062 781.570312 L 43.109375 657.039062 Z M 102.03125 453.914062 " clip-rule="nonzero"/></clipPath><clipPath id="f8b80f3567"><path d="M 102.03125 453.914062 L 531.335938 578.445312 L 472.414062 781.570312 L 43.109375 657.039062 Z M 102.03125 453.914062 " clip-rule="nonzero"/></clipPath><clipPath id="9e2bb7f373"><path d="M 331 575 L 513 575 L 513 633 L 331 633 Z M 331 575 " clip-rule="nonzero"/></clipPath><clipPath id="ea12b7dd97"><path d="M 102.03125 453.914062 L 531.335938 578.445312 L 472.414062 781.570312 L 43.109375 657.039062 Z M 102.03125 453.914062 " clip-rule="nonzero"/></clipPath><clipPath id="fae0e8f3a6"><path d="M 102.03125 453.914062 L 531.335938 578.445312 L 472.414062 781.570312 L 43.109375 657.039062 Z M 102.03125 453.914062 " clip-rule="nonzero"/></clipPath><clipPath id="03a7d59404"><path d="M 102.03125 453.914062 L 531.335938 578.445312 L 472.414062 781.570312 L 43.109375 657.039062 Z M 102.03125 453.914062 " clip-rule="nonzero"/></clipPath><clipPath id="2b27a1f456"><path d="M 264 649 L 364 649 L 364 749 L 264 749 Z M 264 649 " clip-rule="nonzero"/></clipPath><clipPath id="dcc7e4bcb9"><path d="M 102.03125 453.914062 L 531.335938 578.445312 L 472.414062 781.570312 L 43.109375 657.039062 Z M 102.03125 453.914062 " clip-rule="nonzero"/></clipPath><clipPath id="767bbcc7b1"><path d="M 102.03125 453.914062 L 531.335938 578.445312 L 472.414062 781.570312 L 43.109375 657.039062 Z M 102.03125 453.914062 " clip-rule="nonzero"/></clipPath><clipPath id="859e75c841"><path d="M 102.03125 453.914062 L 531.335938 578.445312 L 472.414062 781.570312 L 43.109375 657.039062 Z M 102.03125 453.914062 " clip-rule="nonzero"/></clipPath><clipPath id="6375b5dea0"><path d="M 187 577 L 226 577 L 226 604 L 187 604 Z M 187 577 " clip-rule="nonzero"/></clipPath><clipPath id="5a1cd437f2"><path d="M 102.03125 453.914062 L 531.335938 578.445312 L 472.414062 781.570312 L 43.109375 657.039062 Z M 102.03125 453.914062 " clip-rule="nonzero"/></clipPath><clipPath id="4b79d50d33"><path d="M 102.03125 453.914062 L 531.335938 578.445312 L 472.414062 781.570312 L 43.109375 657.039062 Z M 102.03125 453.914062 " clip-rule="nonzero"/></clipPath><clipPath id="a876a491bf"><path d="M 102.03125 453.914062 L 531.335938 578.445312 L 472.414062 781.570312 L 43.109375 657.039062 Z M 102.03125 453.914062 " clip-rule="nonzero"/></clipPath><clipPath id="179aab51b4"><path d="M 118 484 L 194 484 L 194 527 L 118 527 Z M 118 484 " clip-rule="nonzero"/></clipPath><clipPath id="f93aaf29a4"><path d="M 102.03125 453.914062 L 531.335938 578.445312 L 472.414062 781.570312 L 43.109375 657.039062 Z M 102.03125 453.914062 " clip-rule="nonzero"/></clipPath><clipPath id="6b07e0a62f"><path d="M 102.03125 453.914062 L 531.335938 578.445312 L 472.414062 781.570312 L 43.109375 657.039062 Z M 102.03125 453.914062 " clip-rule="nonzero"/></clipPath><clipPath id="a801856298"><path d="M 102.03125 453.914062 L 531.335938 578.445312 L 472.414062 781.570312 L 43.109375 657.039062 Z M 102.03125 453.914062 " clip-rule="nonzero"/></clipPath></defs><g clip-path="url(#fe051e7c89)"><g clip-path="url(#09c0fe5953)"><g clip-path="url(#e78fb450ef)"><g clip-path="url(#cf4e187b51)"><path fill="#000000" d="M 542.117188 192.042969 L 542.128906 192.054688 C 542.164062 192.085938 542.207031 192.117188 542.253906 192.148438 L 542.121094 192.042969 L 542.117188 192.042969 M 542.273438 192.167969 L 606.167969 243.632812 C 608.773438 242.109375 619.046875 241.226562 636.984375 240.976562 C 645.9375 240.859375 662.820312 241.53125 687.628906 242.996094 C 707.847656 244.289062 726.488281 247.386719 743.546875 252.292969 C 744.390625 252.09375 744.3125 251.417969 743.320312 250.269531 C 743.054688 249.679688 740.789062 247.441406 736.527344 243.5625 C 733.351562 240.625 728.109375 237.699219 720.800781 234.78125 L 670.34375 219.777344 C 656.335938 216.355469 638.925781 214.347656 618.109375 213.757812 C 604.578125 206.488281 593.789062 201.984375 585.730469 200.25 C 580.992188 198.789062 569.625 196.953125 551.625 194.742188 C 547.097656 193.886719 543.980469 193.027344 542.273438 192.167969 " fill-opacity="1" fill-rule="nonzero"/></g></g></g></g><g clip-path="url(#352c3ba9b1)"><g clip-path="url(#51c9a2c639)"><g clip-path="url(#86ca23ec75)"><g clip-path="url(#3b3c2d2754)"><path fill="#000000" d="M 602.285156 234.9375 L 537.648438 265.054688 C 542.898438 266.742188 546.050781 267.609375 547.109375 267.660156 C 556.210938 266.929688 567.929688 266.613281 582.265625 266.710938 C 589.425781 266.796875 596.691406 267.382812 604.058594 268.460938 C 610.4375 269.515625 626.859375 273.539062 653.320312 280.53125 C 658.351562 281.550781 664.195312 282.328125 670.84375 282.859375 C 692.703125 283.792969 710.230469 282.808594 723.425781 279.90625 C 723.835938 279.699219 723.941406 279.554688 723.738281 279.46875 L 696.183594 270.066406 C 689.980469 268.585938 680.917969 266.796875 668.988281 264.691406 C 660.59375 262.507812 655.144531 260.957031 652.636719 260.035156 L 602.285156 234.9375 " fill-opacity="1" fill-rule="nonzero"/></g></g></g></g><g clip-path="url(#c08ee9a9ed)"><g clip-path="url(#975e308605)"><g clip-path="url(#14e2953c48)"><g clip-path="url(#98be95b56a)"><path fill="#000000" d="M 536.199219 232.523438 L 533.9375 233.257812 C 527.148438 236.097656 521.84375 239.304688 518.027344 242.878906 L 488.941406 271.359375 C 455.703125 304.695312 432.417969 330.230469 419.09375 347.964844 L 410.96875 359.804688 L 406.574219 368.71875 L 405.914062 374.707031 L 408.988281 377.769531 C 411.84375 379.277344 414.8125 380.304688 417.894531 380.855469 C 422.351562 381.800781 427.410156 381.429688 433.074219 379.738281 C 433.621094 379.648438 436.144531 378.574219 440.636719 376.503906 C 444.4375 374.664062 448.820312 372.277344 453.789062 369.351562 C 455.308594 368.992188 458.902344 366.292969 464.570312 361.246094 C 467.609375 358.515625 471.632812 354.089844 476.636719 347.960938 C 485.03125 337.726562 492.339844 327.894531 498.566406 318.464844 L 509.695312 306.097656 C 522.457031 294.5625 530.601562 287.78125 534.136719 285.75 C 539.039062 282.378906 545.871094 279.40625 554.632812 276.839844 C 558.859375 275.890625 566.910156 274.722656 578.785156 273.335938 C 600.214844 266.457031 611.734375 263.105469 613.339844 263.285156 L 570.207031 241.25 C 563.972656 236.714844 560.226562 234.363281 558.960938 234.191406 C 551.433594 230.871094 543.847656 230.316406 536.199219 232.523438 " fill-opacity="1" fill-rule="nonzero"/></g></g></g></g><g clip-path="url(#979afddb80)"><g clip-path="url(#2759297e78)"><g clip-path="url(#77c20ce346)"><g clip-path="url(#1d1abbe2c8)"><path fill="#000000" d="M 723.371094 49.835938 L 720.777344 50.617188 C 714.011719 52.683594 708.449219 54.613281 704.089844 56.40625 C 703.59375 57.507812 685.445312 65.976562 649.644531 81.8125 C 641.144531 86.015625 633.210938 91.007812 625.84375 96.789062 C 622.335938 91.195312 623.652344 86.074219 629.789062 81.425781 C 621.742188 84.371094 616.871094 89.070312 615.175781 95.515625 C 610.925781 93.78125 608.328125 93.21875 607.378906 93.828125 L 599.078125 100.863281 C 594.300781 112.113281 588.703125 121.601562 582.28125 129.328125 C 554.269531 152.09375 538.289062 165.828125 534.332031 170.53125 C 526.324219 178.453125 521.910156 184.253906 521.09375 187.941406 C 520.613281 188.671875 516.40625 187.144531 508.476562 183.363281 L 478.554688 165.902344 C 477.941406 165.539062 477.328125 165.542969 476.707031 165.90625 C 474.644531 168.894531 476.6875 175.050781 482.839844 184.375 C 494.757812 193.570312 504.402344 202.53125 511.777344 211.261719 C 502.566406 225.25 495.648438 238.226562 491.035156 250.1875 C 488.726562 256.167969 486.996094 261.890625 485.835938 267.363281 C 484.539062 270.417969 484.097656 278.050781 484.507812 290.269531 L 575.796875 211.054688 C 582.632812 194.660156 587.859375 184.371094 591.472656 180.195312 C 596.359375 172.78125 602.1875 164.988281 608.945312 156.824219 C 621.117188 141.652344 639.742188 122.671875 664.816406 99.886719 C 672.671875 92.425781 692.035156 80.765625 722.90625 64.910156 C 724.519531 63.945312 730.542969 61.34375 740.972656 57.09375 C 749.476562 53.851562 759.007812 50.613281 769.5625 47.382812 C 769.898438 47.160156 769.527344 46.726562 768.445312 46.078125 C 762.074219 45.632812 755.570312 45.636719 748.925781 46.082031 C 744.019531 46.167969 735.5 47.417969 723.371094 49.835938 " fill-opacity="1" fill-rule="nonzero"/></g></g></g></g><g clip-path="url(#ae90323aba)"><g clip-path="url(#728a5d7720)"><g clip-path="url(#f61350343c)"><g clip-path="url(#0f5d5bd8f7)"><path fill="#000000" d="M 501.894531 237.160156 L 501.179688 237.695312 C 499.226562 239.265625 496.84375 241.9375 494.035156 245.714844 C 483.480469 261.777344 475.417969 273.082031 469.847656 279.625 C 464.757812 286.027344 458.628906 292.746094 451.464844 299.785156 C 448.292969 302.804688 444.21875 305.667969 439.242188 308.367188 C 434.4375 310.878906 425.597656 314.539062 412.714844 319.34375 C 411.859375 319.871094 411.253906 320.484375 410.898438 321.1875 C 410.667969 325.433594 412.410156 331.445312 416.125 339.230469 C 417.738281 342.058594 419.601562 344.265625 421.714844 345.847656 L 425.074219 347.761719 C 432.761719 350.285156 441.507812 347.957031 451.320312 340.777344 C 451.964844 340.402344 453.792969 338.800781 456.804688 335.972656 L 480.078125 309.851562 C 489.332031 299.847656 494.042969 295 494.214844 295.3125 L 501.894531 237.160156 " fill-opacity="1" fill-rule="nonzero"/></g></g></g></g><g clip-path="url(#04e8cc3ba3)"><g clip-path="url(#7c77a17f1d)"><g clip-path="url(#fcf0c9d39c)"><g clip-path="url(#6a02549d3f)"><path fill="#000000" d="M 106.699219 187.71875 L 99.09375 190.007812 C 80.050781 196.265625 65.214844 201.609375 54.589844 206.046875 L 22.703125 219.347656 C 22.160156 220.027344 22.164062 220.417969 22.714844 220.523438 C 23.96875 221.253906 27.707031 221.871094 33.933594 222.378906 C 43.425781 221.949219 60.699219 222.40625 85.746094 223.757812 C 100.289062 224.710938 115.40625 226.136719 131.105469 228.035156 C 140.980469 229.554688 154.617188 234.34375 172.015625 242.394531 L 200.9375 256.917969 C 253.695312 287.464844 283.082031 305.234375 289.09375 310.230469 L 323.488281 341.867188 C 329.078125 347.796875 340.019531 362.730469 356.316406 386.675781 C 357.324219 387.960938 359.046875 389.527344 361.488281 391.367188 C 374.003906 397.515625 385.230469 399.011719 395.171875 395.847656 C 408.175781 390.917969 418.097656 383.050781 424.941406 372.242188 L 471.835938 278.753906 C 468.234375 284.695312 462.90625 288.386719 455.855469 289.832031 C 446.050781 290.808594 436.976562 289.230469 428.625 285.097656 C 420.164062 280.558594 387.59375 256.148438 330.90625 211.867188 C 314.296875 202.238281 292.121094 193.746094 264.378906 186.390625 C 262.792969 185.03125 262.851562 181.03125 264.550781 174.394531 C 264.332031 173.324219 262.867188 172.417969 260.160156 171.671875 C 258.726562 171.449219 258.136719 174.0625 258.382812 179.515625 C 257.292969 181.128906 255.933594 181.980469 254.308594 182.074219 L 240.316406 171.285156 C 238.179688 170.445312 234.949219 169.796875 230.617188 169.332031 C 229.058594 169.09375 231.578125 171.582031 238.183594 176.804688 C 239.046875 178 239.125 179.171875 238.421875 180.324219 L 223.042969 180.445312 L 217.089844 184.433594 C 207.441406 178.839844 200.894531 176.125 197.453125 176.289062 C 192.144531 175.28125 186.207031 174.808594 179.636719 174.871094 C 158.859375 175.773438 134.546875 180.054688 106.699219 187.71875 " fill-opacity="1" fill-rule="nonzero"/></g></g></g></g><g clip-path="url(#e361445ed6)"><g clip-path="url(#acf35e3ae2)"><g clip-path="url(#d75d5386e4)"><g clip-path="url(#ffba31994f)"><path fill="#000000" d="M 52.304688 219.09375 L 62.167969 218.957031 C 75.710938 219.171875 90.816406 220.957031 107.492188 224.308594 C 129.015625 229.1875 142.402344 232.585938 147.648438 234.503906 C 177.539062 244.003906 199.015625 251.367188 212.085938 256.59375 C 226.488281 262.289062 244.566406 271.066406 266.316406 282.914062 C 275.625 286.890625 285.539062 290.738281 296.054688 294.449219 C 315.160156 301.59375 334.355469 305.59375 353.644531 306.453125 C 363.019531 306.355469 364.980469 302.890625 359.527344 296.066406 C 325.117188 262.566406 305.167969 243.4375 299.679688 238.6875 C 288.035156 226.691406 272.027344 218.183594 251.660156 213.167969 C 246.230469 211.65625 240.355469 210.234375 234.039062 208.902344 L 52.304688 219.09375 " fill-opacity="1" fill-rule="nonzero"/></g></g></g></g><g clip-path="url(#5d62a0e925)"><g clip-path="url(#e4ad746141)"><g clip-path="url(#e59914d78a)"><g clip-path="url(#2d9bff2427)"><path fill="#000000" d="M 346.871094 366.46875 L 348.523438 369.300781 C 352.6875 376.722656 354.054688 385.824219 352.625 396.613281 C 351.949219 398.824219 351 401.003906 349.777344 403.160156 L 341.734375 414.59375 L 338.328125 420.753906 C 332.4375 446.710938 328.40625 461.652344 326.238281 465.578125 C 324.300781 469.195312 322.996094 471.378906 322.316406 472.125 C 316.804688 476.875 313.667969 480.300781 312.910156 482.402344 C 307.207031 495.699219 305.675781 503.40625 308.3125 505.515625 C 308.101562 503.171875 308.375 501.269531 309.125 499.8125 C 312.925781 493.175781 315.839844 489.296875 317.867188 488.179688 C 319.867188 487.1875 320.816406 487.691406 320.710938 489.699219 L 316.449219 502.691406 C 317.882812 503.632812 319.574219 502.320312 321.523438 498.753906 C 323.753906 493.832031 325.40625 489.207031 326.480469 484.875 C 327.261719 484.785156 327.667969 485.585938 327.707031 487.277344 C 327.523438 490.855469 326.996094 494.363281 326.125 497.808594 C 327.164062 498.335938 328.203125 497.730469 329.238281 495.988281 L 332.417969 483.328125 C 331.269531 478.894531 330.984375 475.800781 331.566406 474.050781 C 338.84375 450.382812 344.085938 436.628906 347.285156 432.789062 C 354.679688 427.089844 364.363281 418.804688 376.335938 407.933594 C 379.878906 405.253906 382.484375 403.710938 384.148438 403.304688 C 389.042969 402.277344 392.207031 403.546875 393.640625 407.109375 C 394.363281 408.257812 393.414062 411.417969 390.789062 416.597656 C 386.949219 423.523438 382.867188 429.457031 378.554688 434.390625 C 373.054688 440.125 369.683594 443.265625 368.445312 443.816406 C 366.109375 445.535156 363.714844 447.007812 361.261719 448.230469 L 356.601562 469.453125 C 356.296875 470.484375 352.464844 474.65625 345.105469 481.976562 C 344.589844 483.558594 346.234375 483.703125 350.039062 482.398438 L 359.128906 476.496094 C 360.804688 477.609375 360.964844 479.058594 359.605469 480.832031 C 358.988281 481.691406 356.484375 483.230469 352.089844 485.449219 C 351.175781 486.160156 350.945312 486.59375 351.40625 486.753906 C 355.671875 486.765625 359.910156 484.851562 364.117188 481.007812 C 355.441406 490.835938 357.328125 491.925781 369.78125 484.285156 C 372.351562 480.824219 373.511719 477.523438 373.261719 474.382812 C 366.96875 468.179688 364.121094 464.28125 364.71875 462.679688 C 364.640625 461.480469 366.3125 457.792969 369.738281 451.617188 C 373.804688 450.066406 382.53125 442.945312 395.921875 430.257812 L 406.125 415.171875 C 410.808594 412.074219 418.015625 403.699219 427.742188 390.050781 C 432.050781 387.085938 436.230469 383.898438 440.285156 380.492188 C 442.46875 379.066406 448.261719 373.449219 457.664062 363.640625 C 465.007812 355.484375 471.839844 346.433594 478.164062 336.488281 L 346.871094 366.46875 " fill-opacity="1" fill-rule="nonzero"/></g></g></g></g><g clip-path="url(#c21ad643ec)"><g clip-path="url(#f3101cd4dd)"><g clip-path="url(#b3656941fa)"><g clip-path="url(#dcbe226ebd)"><path fill="#000000" d="M 562.03125 212.476562 L 561.679688 212.578125 C 554.601562 214.980469 549.195312 219.222656 545.460938 225.304688 C 544.121094 228.71875 544.566406 232.460938 546.792969 236.535156 L 547.710938 238.078125 L 551.359375 242.277344 L 555.167969 245.921875 L 559.140625 249.015625 L 563.269531 251.554688 L 567.5625 253.542969 L 572.015625 254.980469 L 576.628906 255.863281 L 581.402344 256.191406 L 586.335938 255.96875 L 609.542969 246.660156 L 608.871094 243.355469 C 608.289062 241.175781 607.4375 239.039062 606.320312 236.949219 L 604.441406 233.839844 C 603.050781 231.792969 601.394531 229.789062 599.472656 227.828125 C 595.347656 223.691406 590.699219 220.160156 585.53125 217.238281 C 576.4375 212.164062 568.601562 210.574219 562.03125 212.476562 " fill-opacity="1" fill-rule="nonzero"/></g></g></g></g><g clip-path="url(#b154e5df8b)"><g clip-path="url(#7a84e352cf)"><g clip-path="url(#e428879571)"><g clip-path="url(#f0581be75b)"><path fill="#000000" d="M 709.492188 55.628906 L 709.164062 55.726562 L 692.988281 60.667969 C 683.425781 63.84375 678.074219 65.710938 676.9375 66.269531 L 672.558594 68.042969 C 669.800781 69.207031 667.367188 70.339844 665.257812 71.441406 C 661.347656 73.578125 659.011719 74.921875 658.253906 75.476562 C 638.238281 88.964844 625.066406 98.242188 618.738281 103.304688 C 613.789062 107.410156 610.0625 110.828125 607.566406 113.554688 C 605.121094 115.882812 602.523438 119.484375 599.773438 124.367188 L 728.351562 53.082031 C 725.3125 53.101562 722.382812 53.277344 719.5625 53.617188 C 714.703125 54.316406 711.34375 54.988281 709.492188 55.628906 " fill-opacity="1" fill-rule="nonzero"/></g></g></g></g><g clip-path="url(#27bca08355)"><g clip-path="url(#505f224547)"><g clip-path="url(#7913579f44)"><g clip-path="url(#727f6e5033)"><path fill="#000000" d="M 226.933594 565.804688 L 226.925781 565.8125 C 226.90625 565.828125 226.882812 565.847656 226.855469 565.867188 L 226.933594 565.804688 M 226.84375 565.875 L 189.605469 595.742188 C 188.085938 594.855469 182.105469 594.332031 171.65625 594.167969 C 166.4375 594.089844 156.605469 594.464844 142.152344 595.292969 C 130.375 596.023438 119.515625 597.808594 109.578125 600.644531 C 109.085938 600.527344 109.132812 600.132812 109.710938 599.464844 C 109.867188 599.121094 111.183594 597.824219 113.671875 595.574219 C 115.519531 593.867188 118.574219 592.171875 122.835938 590.480469 L 152.230469 581.804688 C 160.390625 579.828125 170.535156 578.679688 182.660156 578.359375 C 190.542969 574.140625 196.832031 571.535156 201.527344 570.535156 C 204.285156 569.6875 210.910156 568.632812 221.394531 567.363281 C 224.03125 566.871094 225.847656 566.375 226.84375 565.875 " fill-opacity="1" fill-rule="nonzero"/></g></g></g></g><g clip-path="url(#23707e7379)"><g clip-path="url(#9e0a81a200)"><g clip-path="url(#9a9eb70732)"><g clip-path="url(#e888c35322)"><path fill="#000000" d="M 191.871094 590.6875 L 229.511719 608.265625 C 226.453125 609.242188 224.613281 609.746094 224 609.773438 C 218.695312 609.339844 211.871094 609.144531 203.519531 609.1875 C 199.347656 609.230469 195.117188 609.5625 190.824219 610.183594 C 187.109375 610.789062 177.542969 613.113281 162.125 617.152344 C 159.191406 617.742188 155.789062 618.1875 151.917969 618.492188 C 139.183594 619.011719 128.972656 618.421875 121.289062 616.71875 C 121.050781 616.597656 120.988281 616.515625 121.105469 616.464844 L 137.160156 611.027344 C 140.773438 610.171875 146.054688 609.136719 153.003906 607.925781 C 157.894531 606.664062 161.070312 605.769531 162.53125 605.234375 L 191.871094 590.6875 " fill-opacity="1" fill-rule="nonzero"/></g></g></g></g><g clip-path="url(#50330b4866)"><g clip-path="url(#8da79f5f5b)"><g clip-path="url(#af73d54847)"><g clip-path="url(#9db419f92b)"><path fill="#000000" d="M 230.367188 589.351562 L 231.683594 589.78125 C 235.636719 591.4375 238.726562 593.308594 240.949219 595.390625 L 257.878906 611.980469 C 277.230469 631.398438 290.785156 646.273438 298.539062 656.597656 L 303.269531 663.492188 L 305.824219 668.679688 L 306.207031 672.164062 L 304.414062 673.941406 C 302.75 674.816406 301.023438 675.410156 299.226562 675.726562 C 296.628906 676.273438 293.683594 676.050781 290.382812 675.0625 C 290.066406 675.011719 288.597656 674.382812 285.980469 673.175781 C 283.765625 672.101562 281.214844 670.707031 278.320312 669.003906 C 277.4375 668.792969 275.34375 667.21875 272.042969 664.277344 C 270.273438 662.6875 267.933594 660.109375 265.019531 656.539062 C 260.132812 650.578125 255.878906 644.855469 252.257812 639.367188 L 245.777344 632.164062 C 238.351562 625.441406 233.605469 621.492188 231.546875 620.304688 C 228.695312 618.339844 224.714844 616.605469 219.613281 615.101562 C 217.148438 614.546875 212.460938 613.859375 205.546875 613.042969 C 193.066406 609.019531 186.355469 607.0625 185.421875 607.164062 L 210.554688 594.390625 C 214.1875 591.761719 216.371094 590.398438 217.105469 590.300781 C 221.492188 588.375 225.914062 588.058594 230.367188 589.351562 " fill-opacity="1" fill-rule="nonzero"/></g></g></g></g><g clip-path="url(#8944047305)"><g clip-path="url(#06ec3a2289)"><g clip-path="url(#ee9ab69ce4)"><g clip-path="url(#4cb2cb8fec)"><path fill="#000000" d="M 121.40625 482.929688 L 122.917969 483.382812 C 126.855469 484.59375 130.097656 485.71875 132.636719 486.769531 C 132.921875 487.40625 143.488281 492.351562 164.339844 501.597656 C 169.289062 504.046875 173.910156 506.960938 178.199219 510.328125 C 180.242188 507.078125 179.480469 504.097656 175.90625 501.390625 C 180.59375 503.109375 183.429688 505.847656 184.414062 509.597656 C 186.890625 508.59375 188.402344 508.269531 188.957031 508.625 L 193.789062 512.726562 C 196.566406 519.269531 199.824219 524.792969 203.5625 529.292969 C 219.871094 542.558594 229.175781 550.5625 231.476562 553.300781 C 236.140625 557.917969 238.707031 561.296875 239.183594 563.441406 C 239.460938 563.863281 241.914062 562.980469 246.535156 560.789062 L 263.972656 550.664062 C 264.328125 550.457031 264.683594 550.457031 265.046875 550.671875 C 266.246094 552.410156 265.054688 555.988281 261.46875 561.402344 C 254.523438 566.738281 248.898438 571.941406 244.601562 577.007812 C 249.960938 585.15625 253.984375 592.707031 256.667969 599.667969 C 258.011719 603.148438 259.019531 606.476562 259.691406 609.660156 C 260.445312 611.4375 260.699219 615.878906 260.457031 622.980469 L 207.308594 576.828125 C 203.332031 567.285156 200.292969 561.296875 198.1875 558.867188 C 195.34375 554.546875 191.953125 550.011719 188.019531 545.257812 C 180.933594 536.421875 170.09375 525.367188 155.496094 512.089844 C 150.921875 507.746094 139.648438 500.945312 121.671875 491.691406 C 120.730469 491.132812 117.222656 489.613281 111.148438 487.128906 C 106.195312 485.238281 100.648438 483.34375 94.5 481.453125 C 94.300781 481.324219 94.519531 481.074219 95.148438 480.695312 C 98.859375 480.445312 102.652344 480.453125 106.519531 480.71875 C 109.378906 480.773438 114.339844 481.507812 121.40625 482.929688 " fill-opacity="1" fill-rule="nonzero"/></g></g></g></g><g clip-path="url(#00797a376a)"><g clip-path="url(#a2caf294c7)"><g clip-path="url(#7b5786aa4b)"><g clip-path="url(#6f7b86b8df)"><path fill="#000000" d="M 250.347656 592.078125 L 250.761719 592.394531 C 251.902344 593.308594 253.289062 594.863281 254.921875 597.0625 C 261.066406 606.414062 265.757812 612.996094 269 616.808594 C 271.960938 620.535156 275.53125 624.449219 279.703125 628.546875 C 281.546875 630.308594 283.917969 631.976562 286.816406 633.554688 C 289.613281 635.015625 294.765625 637.152344 302.265625 639.960938 C 302.761719 640.269531 303.117188 640.625 303.324219 641.035156 C 303.453125 643.503906 302.4375 647 300.273438 651.523438 C 299.332031 653.164062 298.246094 654.445312 297.011719 655.367188 L 295.054688 656.476562 C 290.578125 657.933594 285.480469 656.570312 279.769531 652.386719 C 279.394531 652.167969 278.332031 651.234375 276.578125 649.589844 L 263.03125 634.375 C 257.644531 628.546875 254.898438 625.722656 254.800781 625.90625 L 250.347656 592.078125 " fill-opacity="1" fill-rule="nonzero"/></g></g></g></g><g clip-path="url(#cf1198eaf7)"><g clip-path="url(#2b3253e362)"><g clip-path="url(#b0adf2b99f)"><g clip-path="url(#f8b80f3567)"><path fill="#000000" d="M 480.570312 563.71875 L 485 565.058594 C 496.089844 568.714844 504.730469 571.839844 510.921875 574.429688 L 529.488281 582.195312 C 529.804688 582.589844 529.804688 582.820312 529.480469 582.878906 C 528.75 583.304688 526.574219 583.660156 522.945312 583.945312 C 517.414062 583.6875 507.355469 583.9375 492.761719 584.695312 C 484.292969 585.238281 475.484375 586.054688 466.339844 587.140625 C 460.585938 588.015625 452.640625 590.785156 442.503906 595.449219 L 425.652344 603.867188 C 394.90625 621.578125 377.785156 631.882812 374.28125 634.785156 L 354.234375 653.148438 C 350.972656 656.589844 344.59375 665.265625 335.09375 679.171875 C 334.507812 679.921875 333.5 680.828125 332.078125 681.894531 C 324.789062 685.460938 318.246094 686.316406 312.457031 684.46875 C 304.882812 681.589844 299.105469 677.003906 295.125 670.710938 L 267.839844 616.300781 C 269.9375 619.757812 273.039062 621.910156 277.144531 622.757812 C 282.855469 623.335938 288.144531 622.425781 293.011719 620.03125 C 297.941406 617.398438 316.921875 603.234375 349.960938 577.539062 C 359.636719 571.957031 372.558594 567.042969 388.722656 562.792969 C 389.648438 562.003906 389.613281 559.675781 388.625 555.8125 C 388.753906 555.191406 389.609375 554.667969 391.1875 554.234375 C 392.019531 554.105469 392.363281 555.628906 392.21875 558.796875 C 392.851562 559.738281 393.644531 560.234375 394.589844 560.289062 L 402.742188 554.03125 C 403.988281 553.542969 405.871094 553.167969 408.394531 552.90625 C 409.304688 552.765625 407.832031 554.210938 403.984375 557.242188 C 403.480469 557.9375 403.433594 558.617188 403.84375 559.289062 L 412.800781 559.375 L 416.269531 561.699219 C 421.890625 558.457031 425.707031 556.882812 427.710938 556.984375 C 430.804688 556.402344 434.261719 556.132812 438.089844 556.175781 C 450.191406 556.71875 464.355469 559.234375 480.570312 563.71875 " fill-opacity="1" fill-rule="nonzero"/></g></g></g></g><g clip-path="url(#9e2bb7f373)"><g clip-path="url(#ea12b7dd97)"><g clip-path="url(#fae0e8f3a6)"><g clip-path="url(#03a7d59404)"><path fill="#000000" d="M 512.242188 582.015625 L 506.5 581.929688 C 498.609375 582.042969 489.808594 583.0625 480.097656 584.996094 C 467.554688 587.8125 459.757812 589.773438 456.699219 590.886719 C 439.285156 596.382812 426.773438 600.644531 419.15625 603.667969 C 410.765625 606.96875 400.230469 612.050781 387.558594 618.921875 C 382.132812 621.226562 376.359375 623.453125 370.230469 625.601562 C 359.097656 629.734375 347.914062 632.042969 336.679688 632.523438 C 331.21875 632.457031 330.078125 630.441406 333.257812 626.476562 C 353.3125 607.027344 364.941406 595.925781 368.140625 593.167969 C 374.925781 586.203125 384.253906 581.273438 396.121094 578.375 C 399.285156 577.503906 402.707031 576.679688 406.386719 575.914062 L 512.242188 582.015625 " fill-opacity="1" fill-rule="nonzero"/></g></g></g></g><g clip-path="url(#2b27a1f456)"><g clip-path="url(#dcc7e4bcb9)"><g clip-path="url(#767bbcc7b1)"><g clip-path="url(#859e75c841)"><path fill="#000000" d="M 340.601562 667.429688 L 339.636719 669.078125 C 337.210938 673.386719 336.410156 678.679688 337.238281 684.953125 C 337.632812 686.242188 338.1875 687.511719 338.894531 688.765625 L 343.578125 695.421875 L 345.558594 699.007812 C 348.980469 714.109375 351.324219 722.800781 352.585938 725.085938 C 353.710938 727.191406 354.472656 728.460938 354.867188 728.898438 C 358.078125 731.664062 359.902344 733.660156 360.34375 734.882812 C 363.660156 742.621094 364.550781 747.105469 363.011719 748.328125 C 363.136719 746.964844 362.980469 745.859375 362.542969 745.011719 C 360.332031 741.148438 358.636719 738.890625 357.453125 738.238281 C 356.289062 737.660156 355.734375 737.953125 355.796875 739.121094 L 358.273438 746.679688 C 357.4375 747.226562 356.453125 746.460938 355.320312 744.382812 C 354.023438 741.519531 353.0625 738.828125 352.4375 736.308594 C 351.984375 736.253906 351.746094 736.71875 351.722656 737.703125 C 351.828125 739.785156 352.132812 741.824219 352.640625 743.828125 C 352.035156 744.136719 351.429688 743.78125 350.828125 742.765625 L 348.976562 735.402344 C 349.648438 732.824219 349.816406 731.027344 349.480469 730.007812 C 345.25 716.238281 342.199219 708.234375 340.335938 706 C 336.03125 702.675781 330.394531 697.847656 323.421875 691.515625 C 321.363281 689.953125 319.84375 689.054688 318.875 688.816406 C 316.027344 688.214844 314.183594 688.949219 313.34375 691.019531 C 312.921875 691.683594 313.476562 693.527344 315 696.539062 C 317.238281 700.570312 319.609375 704.023438 322.121094 706.898438 C 325.324219 710.238281 327.285156 712.070312 328.007812 712.390625 C 329.367188 713.390625 330.761719 714.25 332.191406 714.960938 L 334.894531 727.3125 C 335.074219 727.910156 337.304688 730.339844 341.589844 734.605469 C 341.890625 735.527344 340.929688 735.605469 338.714844 734.84375 L 333.421875 731.402344 C 332.445312 732.050781 332.351562 732.890625 333.140625 733.925781 C 333.5 734.425781 334.960938 735.320312 337.519531 736.617188 C 338.050781 737.03125 338.183594 737.28125 337.917969 737.375 C 335.433594 737.378906 332.964844 736.261719 330.515625 734.023438 C 335.566406 739.746094 334.464844 740.378906 327.214844 735.921875 C 325.71875 733.90625 325.042969 731.988281 325.191406 730.160156 C 328.859375 726.558594 330.519531 724.296875 330.171875 723.363281 C 330.21875 722.664062 329.242188 720.519531 327.253906 716.925781 C 324.882812 716.019531 319.800781 711.871094 312.007812 704.480469 L 306.070312 695.695312 C 303.34375 693.886719 299.148438 689.011719 293.484375 681.066406 C 290.976562 679.335938 288.542969 677.480469 286.183594 675.492188 C 284.910156 674.660156 281.539062 671.390625 276.066406 665.675781 C 271.792969 660.925781 267.8125 655.65625 264.132812 649.867188 L 340.601562 667.429688 " fill-opacity="1" fill-rule="nonzero"/></g></g></g></g><g clip-path="url(#6375b5dea0)"><g clip-path="url(#5a1cd437f2)"><g clip-path="url(#4b79d50d33)"><g clip-path="url(#a876a491bf)"><path fill="#000000" d="M 215.328125 577.667969 L 215.53125 577.726562 C 219.652344 579.128906 222.800781 581.601562 224.976562 585.144531 C 225.753906 587.128906 225.492188 589.304688 224.195312 591.675781 L 223.660156 592.570312 L 221.53125 595.007812 L 219.3125 597.125 L 217 598.917969 L 214.589844 600.390625 L 212.089844 601.542969 L 209.496094 602.375 L 206.808594 602.882812 L 204.027344 603.070312 L 201.152344 602.9375 L 187.640625 597.5 L 188.03125 595.578125 C 188.371094 594.3125 188.867188 593.070312 189.519531 591.855469 L 190.617188 590.050781 C 191.425781 588.859375 192.390625 587.695312 193.511719 586.558594 C 195.917969 584.15625 198.625 582.109375 201.636719 580.414062 C 206.9375 577.472656 211.5 576.554688 215.328125 577.667969 " fill-opacity="1" fill-rule="nonzero"/></g></g></g></g><g clip-path="url(#179aab51b4)"><g clip-path="url(#f93aaf29a4)"><g clip-path="url(#6b07e0a62f)"><g clip-path="url(#a801856298)"><path fill="#000000" d="M 129.488281 486.308594 L 129.679688 486.367188 L 139.097656 489.253906 C 144.667969 491.113281 147.785156 492.203125 148.445312 492.53125 L 150.996094 493.566406 C 152.601562 494.246094 154.019531 494.90625 155.246094 495.550781 C 157.527344 496.792969 158.886719 497.578125 159.328125 497.902344 C 170.980469 505.765625 178.648438 511.175781 182.335938 514.125 C 185.21875 516.519531 187.386719 518.507812 188.839844 520.097656 C 190.261719 521.453125 191.773438 523.550781 193.375 526.390625 L 118.503906 484.8125 C 120.273438 484.824219 121.980469 484.929688 123.621094 485.128906 C 126.453125 485.542969 128.410156 485.933594 129.488281 486.308594 " fill-opacity="1" fill-rule="nonzero"/></g></g></g></g></svg>